<svg width="215" height="182" viewBox="0 0 215 182" fill="none" xmlns="http://www.w3.org/2000/svg">
<path d="M80.3789 12.0514C89.5313 -9.17441 125.513 2.08102 138 21.5333C146.834 35.2955 162.335 40.4879 187.234 38.5481C208.903 36.86 224.39 65.2905 207.875 79.4196L197.099 88.6382C195.768 89.7771 194.592 91.0861 193.602 92.5314L138.434 173.053C127.564 188.918 102.754 181.797 101.952 162.582L101.2 144.527C100.838 135.866 94.9384 128.423 86.5879 126.095L15.2084 106.195C-3.20573 101.061 -4.6133 75.4949 13.1259 68.3707L57.4454 50.5716C62.3444 48.6041 66.2669 44.7794 68.3572 39.9315L80.3789 12.0514Z" fill="#E2842C"/>
</svg>
