<svg width="31" height="31" viewBox="0 0 31 31" fill="none" xmlns="http://www.w3.org/2000/svg">
<g clip-path="url(#clip0_308_187)">
<path d="M23.619 0H7.38095C3.30457 0 0 3.30457 0 7.38095V23.619C0 27.6954 3.30457 31 7.38095 31H23.619C27.6954 31 31 27.6954 31 23.619V7.38095C31 3.30457 27.6954 0 23.619 0Z" fill="#E7FE54"/>
<path d="M15.4847 22.9979C14.1872 22.9979 13.0472 22.7649 12.0646 22.2988C11.0947 21.8201 10.3326 21.1588 9.77832 20.3148C9.23664 19.4708 8.96582 18.4945 8.96582 17.386C8.96582 16.2649 9.23664 15.2886 9.77832 14.4572C10.3326 13.6132 11.0947 12.9582 12.0646 12.4921C13.0472 12.0135 14.1872 11.7741 15.4847 11.7741C16.7822 11.7741 17.9159 12.0135 18.8858 12.4921C19.8684 12.9582 20.6305 13.6132 21.1721 14.4572C21.7264 15.2886 22.0035 16.2649 22.0035 17.386C22.0035 18.4945 21.7264 19.4708 21.1721 20.3148C20.6305 21.1588 19.8684 21.8201 18.8858 22.2988C17.9159 22.7649 16.7822 22.9979 15.4847 22.9979ZM15.4847 21.0706C16.3161 21.0706 17.0278 20.9194 17.6198 20.6171C18.2245 20.3148 18.6906 19.8928 19.0181 19.3511C19.3456 18.7969 19.5094 18.1418 19.5094 17.386C19.5094 16.6302 19.3456 15.9815 19.0181 15.4398C18.6906 14.8856 18.2245 14.4572 17.6198 14.1549C17.0278 13.8526 16.3161 13.7014 15.4847 13.7014C14.6659 13.7014 13.9542 13.8526 13.3495 14.1549C12.7449 14.4572 12.2788 14.8856 11.9513 15.4398C11.6238 15.9815 11.46 16.6302 11.46 17.386C11.46 18.1418 11.6238 18.7969 11.9513 19.3511C12.2788 19.8928 12.7449 20.3148 13.3495 20.6171C13.9542 20.9194 14.6659 21.0706 15.4847 21.0706ZM12.726 10.6215C12.2725 10.6215 11.9009 10.5019 11.6112 10.2625C11.334 10.0106 11.1955 9.67675 11.1955 9.26106C11.1955 8.85797 11.334 8.53675 11.6112 8.2974C11.9009 8.04547 12.2725 7.91949 12.726 7.91949C13.1795 7.91949 13.5448 8.04547 13.8219 8.2974C14.1116 8.53675 14.2565 8.85797 14.2565 9.26106C14.2565 9.67675 14.1116 10.0106 13.8219 10.2625C13.5448 10.5019 13.1795 10.6215 12.726 10.6215ZM18.2623 10.6215C17.8088 10.6215 17.4372 10.5019 17.1475 10.2625C16.8703 10.0106 16.7318 9.67675 16.7318 9.26106C16.7318 8.85797 16.8703 8.53675 17.1475 8.2974C17.4372 8.04547 17.8088 7.91949 18.2623 7.91949C18.7032 7.91949 19.0622 8.04547 19.3393 8.2974C19.629 8.53675 19.7739 8.85797 19.7739 9.26106C19.7739 9.67675 19.629 10.0106 19.3393 10.2625C19.0622 10.5019 18.7032 10.6215 18.2623 10.6215Z" fill="#222222"/>
</g>
<defs>
<clipPath id="clip0_308_187">
<rect width="31" height="31" fill="white"/>
</clipPath>
</defs>
</svg>
