<svg width="47" height="46" viewBox="0 0 47 46" fill="none" xmlns="http://www.w3.org/2000/svg">
<path d="M23.7334 27.0117L34.3535 42.0996L30.252 45.0293L23.7334 35.0684L16.7021 45.0293L12.5273 42.0996L23.7334 27.0117ZM27.6885 24.0088L45.4131 18.7354L46.8779 23.1299L35.3789 26.4258L42.5566 36.46L38.4551 39.3164L27.6885 24.0088ZM19.6318 24.1553L8.49902 38.9502L4.61719 36.0205L12.0146 26.5723L0.295898 22.7637L1.90723 18.1494L19.6318 24.1553ZM26.1504 19.3213V0.864258H30.6914V12.876L42.5566 9.06738L44.0215 13.9014L26.1504 19.3213ZM21.0967 19.3945L3.44531 13.3154L5.12988 8.77441L16.3359 12.8027V0.864258H21.0967V19.3945Z" fill="#0000C4"/>
</svg>
