<svg width="1390" height="390" viewBox="0 0 1390 390" fill="none" xmlns="http://www.w3.org/2000/svg">
<rect width="1390" height="390" fill="#F6FAFD"/>
<path d="M627.526 218.576C620.218 218.576 613.716 217.396 608.02 215.036C599.784 211.618 593.819 206.271 590.124 198.996C588.708 196.083 588 193.479 588 191.184C588 188.628 588.871 186.455 590.612 184.665C591.426 183.835 592.386 183.176 593.493 182.688C594.6 182.199 596.073 181.792 597.912 181.467C599.914 181.125 601.729 180.954 603.356 180.954C606.14 180.954 608.361 181.467 610.021 182.492C610.803 182.964 611.193 183.412 611.193 183.835C611.193 184.047 611.096 184.25 610.9 184.445C610.705 184.641 610.526 184.738 610.363 184.738C610.054 184.738 609.533 184.559 608.801 184.201C607.873 183.745 607.059 183.452 606.359 183.322C605.741 183.208 604.829 183.151 603.625 183.151C601.949 183.151 600.655 183.216 599.743 183.347C598.832 183.461 597.676 183.688 596.276 184.03C593.77 184.632 592.012 185.812 591.003 187.57C590.45 188.628 590.173 189.825 590.173 191.159C590.173 192.803 590.588 194.65 591.418 196.701C593.697 201.91 597.342 206.223 602.355 209.641C608.964 214.019 617.004 216.273 626.477 216.403C629.146 216.403 631.172 216.346 632.556 216.232C638.562 215.63 643.436 214.466 647.18 212.741C650.923 211.016 653.275 208.843 654.235 206.223C654.463 205.555 654.577 204.855 654.577 204.123C654.577 199.745 650.931 194.431 643.64 188.181C641.068 185.918 636.568 182.476 630.139 177.854C625.663 174.631 622.367 172.1 620.251 170.261C618.151 168.405 616.597 166.688 615.588 165.109C614.318 163.124 613.684 161.358 613.684 159.812C613.684 159.34 613.773 158.786 613.952 158.151C614.538 155.922 616.369 154.017 619.445 152.438C623.107 150.534 627.388 149.541 632.287 149.46C634.322 149.46 635.795 149.517 636.706 149.631C638.09 149.842 639.302 150.119 640.344 150.461C641.906 150.998 642.688 151.576 642.688 152.194C642.688 152.552 642.533 152.837 642.224 153.049C642.11 153.114 641.988 153.146 641.857 153.146C641.711 153.146 641.377 153.033 640.856 152.805C639.001 151.975 636.69 151.535 633.923 151.486C630.912 151.486 628.096 151.812 625.476 152.463C623.164 153.081 621.203 153.863 619.592 154.807C617.46 156.044 616.263 157.338 616.003 158.688C615.954 158.965 615.93 159.356 615.93 159.86C615.93 160.593 616.035 161.26 616.247 161.862C616.475 162.465 616.882 163.189 617.468 164.035C618.379 165.484 619.86 167.095 621.911 168.869C623.962 170.627 627.396 173.239 632.214 176.706C635.111 178.789 637.487 180.539 639.343 181.955C647.871 188.433 653.202 194.007 655.334 198.679C655.822 199.688 656.164 200.599 656.359 201.413C656.571 202.211 656.677 203.081 656.677 204.025C656.677 204.742 656.644 205.262 656.579 205.588C656.53 205.93 656.416 206.353 656.237 206.857C655.065 210.08 652.331 212.684 648.034 214.67C643.754 216.672 638.179 217.933 631.311 218.454C630.285 218.519 629.024 218.56 627.526 218.576ZM666.979 220.139C666.507 220.139 666.06 220.098 665.637 220.017C662.902 219.366 661.535 217.144 661.535 213.352C661.535 213.205 661.535 212.782 661.535 212.082C661.551 211.398 661.625 210.568 661.755 209.592C662.113 207.281 662.845 204.034 663.952 199.851C665.075 195.651 666.32 191.477 667.688 187.326C670.129 180.002 673.124 172.8 676.672 165.72C678.641 161.765 680.098 159.331 681.042 158.42C681.4 158.046 681.66 157.801 681.823 157.688C682.002 157.574 682.206 157.517 682.434 157.517C682.857 157.517 683.19 157.696 683.435 158.054C683.597 158.265 683.679 158.477 683.679 158.688C683.679 158.851 683.63 159.022 683.532 159.201C683.451 159.364 683.353 159.486 683.239 159.567C683.125 159.649 682.963 159.689 682.751 159.689H682.727C682.222 159.689 680.952 161.765 678.918 165.915C674.393 174.997 670.845 183.876 668.273 192.551C667.313 195.708 666.434 198.817 665.637 201.877C664.855 204.937 664.302 207.354 663.977 209.128C663.749 210.463 663.635 211.797 663.635 213.132C663.635 214.239 663.724 215.093 663.903 215.695C664.343 217.225 665.417 217.99 667.126 217.99C669.6 217.99 673.531 216.395 678.918 213.205C682.873 210.861 686.722 208.151 690.466 205.075C691.621 204.082 693.135 202.65 695.007 200.778C696.879 198.89 698.262 197.401 699.157 196.311C704.626 189.556 707.36 182.386 707.36 174.802L707.312 173.337C706.986 166.696 705.212 160.072 701.989 153.464C700.541 150.485 699.092 148.296 697.644 146.896C696.862 146.083 696.162 145.513 695.544 145.188C694.925 144.862 694.25 144.699 693.518 144.699C693.078 144.699 692.736 144.724 692.492 144.772C690.751 145.179 687.813 147.979 683.679 153.171C680.228 157.533 676.9 162.367 673.693 167.673C671.822 170.765 670.235 173.687 668.933 176.438C667.631 179.188 666.328 182.354 665.026 185.935C664.245 188.067 663.765 189.23 663.586 189.426C663.423 189.621 663.212 189.719 662.951 189.719C662.626 189.719 662.382 189.613 662.219 189.401C662.056 189.174 661.975 188.97 661.975 188.791C661.975 188.482 662.536 186.748 663.659 183.591C665.84 177.373 669.12 170.814 673.498 163.913C676.346 159.421 679.276 155.279 682.287 151.486C685.314 147.694 687.691 145.163 689.416 143.894C690.783 142.982 692.134 142.526 693.469 142.526C695.878 142.526 698.246 144.007 700.573 146.97C702.315 149.281 703.918 152.202 705.383 155.734C708.085 162.229 709.436 168.568 709.436 174.753C709.436 177.097 709.224 179.351 708.801 181.516C707.385 188.482 703.552 195.171 697.302 201.584C690.791 208.16 683.435 213.514 675.231 217.648C671.862 219.309 669.112 220.139 666.979 220.139ZM716.101 220.139C715.629 220.139 715.181 220.098 714.758 220.017C712.023 219.366 710.656 217.144 710.656 213.352C710.656 213.205 710.656 212.782 710.656 212.082C710.673 211.398 710.746 210.568 710.876 209.592C711.234 207.281 711.966 204.034 713.073 199.851C714.196 195.651 715.441 191.477 716.809 187.326C719.25 180.002 722.245 172.8 725.793 165.72C727.762 161.765 729.219 159.331 730.163 158.42C730.521 158.046 730.782 157.801 730.944 157.688C731.123 157.574 731.327 157.517 731.555 157.517C731.978 157.517 732.312 157.696 732.556 158.054C732.718 158.265 732.8 158.477 732.8 158.688C732.8 158.851 732.751 159.022 732.653 159.201C732.572 159.364 732.474 159.486 732.36 159.567C732.246 159.649 732.084 159.689 731.872 159.689H731.848C731.343 159.689 730.074 161.765 728.039 165.915C723.514 174.997 719.966 183.876 717.395 192.551C716.434 195.708 715.555 198.817 714.758 201.877C713.977 204.937 713.423 207.354 713.098 209.128C712.87 210.463 712.756 211.797 712.756 213.132C712.756 214.239 712.845 215.093 713.024 215.695C713.464 217.225 714.538 217.99 716.247 217.99C718.721 217.99 722.652 216.395 728.039 213.205C731.994 210.861 735.843 208.151 739.587 205.075C740.743 204.082 742.256 202.65 744.128 200.778C746 198.89 747.383 197.401 748.278 196.311C753.747 189.556 756.481 182.386 756.481 174.802L756.433 173.337C756.107 166.696 754.333 160.072 751.11 153.464C749.662 150.485 748.213 148.296 746.765 146.896C745.983 146.083 745.284 145.513 744.665 145.188C744.047 144.862 743.371 144.699 742.639 144.699C742.199 144.699 741.857 144.724 741.613 144.772C739.872 145.179 736.934 147.979 732.8 153.171C729.349 157.533 726.021 162.367 722.814 167.673C720.943 170.765 719.356 173.687 718.054 176.438C716.752 179.188 715.45 182.354 714.147 185.935C713.366 188.067 712.886 189.23 712.707 189.426C712.544 189.621 712.333 189.719 712.072 189.719C711.747 189.719 711.503 189.613 711.34 189.401C711.177 189.174 711.096 188.97 711.096 188.791C711.096 188.482 711.657 186.748 712.78 183.591C714.961 177.373 718.241 170.814 722.619 163.913C725.467 159.421 728.397 155.279 731.408 151.486C734.436 147.694 736.812 145.163 738.537 143.894C739.904 142.982 741.255 142.526 742.59 142.526C744.999 142.526 747.367 144.007 749.694 146.97C751.436 149.281 753.039 152.202 754.504 155.734C757.206 162.229 758.557 168.568 758.557 174.753C758.557 177.097 758.345 179.351 757.922 181.516C756.506 188.482 752.673 195.171 746.423 201.584C739.912 208.16 732.556 213.514 724.353 217.648C720.983 219.309 718.233 220.139 716.101 220.139ZM793.957 220.627C793.436 220.627 793.07 220.196 792.858 219.333C792.565 218.129 792.313 214.857 792.102 209.519C791.939 205.759 791.654 196.319 791.247 181.198C791.068 173.939 790.922 168.739 790.808 165.598C790.368 155.018 789.286 148.711 787.561 146.677C787.17 146.286 786.901 146.091 786.755 146.091C786.315 146.091 785.673 146.473 784.826 147.238C783.996 148.003 783.166 148.964 782.336 150.119C779.26 154.579 776.135 160.902 772.961 169.089C769.787 177.259 767.159 185.788 765.075 194.675C762.943 204.343 761.877 211.171 761.877 215.158C761.877 215.907 761.787 216.354 761.608 216.501C761.429 216.664 761.242 216.745 761.047 216.745C760.673 216.745 760.331 216.485 760.021 215.964C759.859 215.541 759.777 214.556 759.777 213.01C759.777 207.411 760.599 197.458 762.243 183.151C763.269 174.509 764.294 167.054 765.319 160.788C766.361 154.506 767.15 150.965 767.688 150.168C767.899 149.973 768.127 149.875 768.371 149.875C768.973 149.875 769.274 150.176 769.274 150.778C769.274 151.12 769.055 152.373 768.615 154.538C766.988 162.969 765.441 173.695 763.977 186.716C763.83 188.002 763.716 189.1 763.635 190.012L763.488 191.599C763.521 191.599 763.667 191.151 763.928 190.256C766.141 181.939 768.575 174.403 771.228 167.648C774.239 160.048 777.062 154.229 779.699 150.192C782.352 146.14 784.68 144.089 786.682 144.04C788.114 144.04 789.261 144.943 790.124 146.75C791.328 149.224 792.175 153.716 792.663 160.227C792.875 163.579 793.103 170.375 793.347 180.612C793.916 203.35 794.405 216.029 794.812 218.649C794.86 218.926 794.885 219.17 794.885 219.382C794.885 220.212 794.576 220.627 793.957 220.627Z" fill="black"/>
</svg>
