<svg width="70" height="777" viewBox="0 0 70 777" fill="none" xmlns="http://www.w3.org/2000/svg">
<path d="M43.8 0.25L43.8 77.5H28.95V0.25L43.8 0.25ZM43.8 100.006L43.8 177.256H28.95L28.95 100.006H43.8ZM43.8 199.762V277.012H28.95V199.762H43.8ZM43.8 299.518V376.768H28.95L28.95 299.518H43.8ZM43.8 399.273V476.523H28.95V399.273H43.8ZM43.8 499.029L43.8 576.279H28.95L28.95 499.029H43.8ZM43.8 598.785L43.8 676.035H28.95V598.785H43.8ZM26.25 776.541L0.15 703.641L14.25 698.541L34.05 758.841L55.05 698.541L69.15 703.641L41.85 776.541H26.25Z" fill="#D9D9D9"/>
</svg>
